HIERARCHY
ROOT Hips
{
	OFFSET 0.000000 0.000000 0.000000
	CHANNELS 6 Xposition Yposition Zposition Xrotation Yrotation Zrotation
	JOINT Spine
	{
		OFFSET 0.000000 0.053497 0.080245
		CHANNELS 3 Xrotation Yrotation Zrotation
		JOINT Spine1
		{
			OFFSET 0.000000 0.018579 0.105368
			CHANNELS 3 Xrotation Yrotation Zrotation
			JOINT Spine2
			{
				OFFSET 0.000000 0.009325 0.106586
				CHANNELS 3 Xrotation Yrotation Zrotation
				JOINT Spine3
				{
					OFFSET 0.000000 0.000000 0.106993
					CHANNELS 3 Xrotation Yrotation Zrotation
					JOINT Neck
					{
						OFFSET 0.000000 -0.040122 0.280858
						CHANNELS 3 Xrotation Yrotation Zrotation
						JOINT Head
						{
							OFFSET 0.000000 -0.025546 0.144881
							CHANNELS 3 Xrotation Yrotation Zrotation
							End Site
							{
								OFFSET 0.000000 0.000000 0.000000
							}
						}
					}
					JOINT RightShoulder
					{
						OFFSET -0.032541 -0.054234 0.175720
						CHANNELS 3 Xrotation Yrotation Zrotation
						JOINT RightArm
						{
							OFFSET -0.161619 0.000000 0.000000
							CHANNELS 3 Xrotation Yrotation Zrotation
							JOINT RightForeArm
							{
								OFFSET -0.257104 0.000000 0.000000
								CHANNELS 3 Xrotation Yrotation Zrotation
								JOINT RightHand
								{
									OFFSET -0.273485 0.000000 0.000000
									CHANNELS 3 Xrotation Yrotation Zrotation
									JOINT RightHandEnd
									{
										OFFSET -0.070844 0.000000 0.000000
										CHANNELS 3 Xrotation Yrotation Zrotation
										End Site
										{
											OFFSET 0.000000 0.000000 0.000000
										}
									}
									JOINT RightHandThumb1
									{
										OFFSET -0.028338 -0.047230 -0.018892
										CHANNELS 3 Xrotation Yrotation Zrotation
										End Site
										{
											OFFSET 0.000000 0.000000 0.000000
										}
									}
								}
							}
						}
					}
					JOINT LeftShoulder
					{
						OFFSET 0.032541 -0.054234 0.175720
						CHANNELS 3 Xrotation Yrotation Zrotation
						JOINT LeftArm
						{
							OFFSET 0.161619 0.000000 0.000000
							CHANNELS 3 Xrotation Yrotation Zrotation
							JOINT LeftForeArm
							{
								OFFSET 0.257104 0.000000 0.000000
								CHANNELS 3 Xrotation Yrotation Zrotation
								JOINT LeftHand
								{
									OFFSET 0.273485 0.000000 0.000000
									CHANNELS 3 Xrotation Yrotation Zrotation
									JOINT LeftHandEnd
									{
										OFFSET 0.070844 0.000000 0.000000
										CHANNELS 3 Xrotation Yrotation Zrotation
										End Site
										{
											OFFSET 0.000000 0.000000 0.000000
										}
									}
									JOINT LeftHandThumb1
									{
										OFFSET 0.028338 -0.047230 -0.018892
										CHANNELS 3 Xrotation Yrotation Zrotation
										End Site
										{
											OFFSET 0.000000 0.000000 0.000000
										}
									}
								}
							}
						}
					}
				}
			}
		}
	}
	JOINT RightUpLeg
	{
		OFFSET -0.096537 0.000000 -0.028202
		CHANNELS 3 Xrotation Yrotation Zrotation
		JOINT RightLeg
		{
			OFFSET 0.000000 0.000000 -0.431842
			CHANNELS 3 Xrotation Yrotation Zrotation
			JOINT RightFoot
			{
				OFFSET 0.000000 0.000000 -0.456398
				CHANNELS 3 Xrotation Yrotation Zrotation
				JOINT RightToeBase
				{
					OFFSET 0.000000 -0.128905 -0.046918
					CHANNELS 3 Xrotation Yrotation Zrotation
					End Site
					{
						OFFSET 0.000000 0.000000 0.000000
					}
				}
			}
		}
	}
	JOINT LeftUpLeg
	{
		OFFSET 0.096537 0.000000 -0.028202
		CHANNELS 3 Xrotation Yrotation Zrotation
		JOINT LeftLeg
		{
			OFFSET 0.000000 0.000000 -0.431842
			CHANNELS 3 Xrotation Yrotation Zrotation
			JOINT LeftFoot
			{
				OFFSET 0.000000 0.000000 -0.456398
				CHANNELS 3 Xrotation Yrotation Zrotation
				JOINT LeftToeBase
				{
					OFFSET 0.000000 -0.128905 -0.046918
					CHANNELS 3 Xrotation Yrotation Zrotation
					End Site
					{
						OFFSET 0.000000 0.000000 0.000000
					}
				}
			}
		}
	}
}
MOTION
Frames: 6
Frame Time: 0.033333
0.327612 1.322398 0.957806 6.340400 2.503400 -12.879200 5.312300 4.814600 -1.141200 3.061800 1.234400 0.141800 4.692900 0.092400 -0.233600 0.636500 -0.413000 0.336800 -10.108000 -9.243200 -3.061000 -4.716800 -2.392400 4.866800 2.646600 -5.765000 13.209300 30.017100 -52.120100 35.109100 0.000000 0.000000 48.132500 -3.605300 6.132700 0.078900 0.000000 0.000000 0.000000 0.000000 0.000000 0.000000 3.455600 8.792200 -15.073500 20.745500 47.624200 -21.957000 0.000000 0.000000 -33.595800 -20.149900 -11.849500 3.332400 0.000000 0.000000 0.000000 0.000000 0.000000 0.000000 -21.808800 3.036200 -12.382400 20.358800 0.000000 0.000000 -5.613900 -13.470900 -3.201000 -5.211100 0.000000 0.000000 -21.289800 -7.658100 8.983500 18.299400 0.000000 0.000000 -12.240400 24.040200 21.357400 10.612700 0.000000 0.000000 
0.326695 1.333434 0.956960 6.148200 2.770800 -13.468600 5.406600 4.813900 -1.088700 3.087000 1.390200 0.141300 4.750700 0.162800 -0.241700 0.643800 -0.413600 0.323000 -9.635900 -9.277600 -2.921100 -4.977400 -2.696500 4.911200 2.819600 -5.581500 12.985300 30.603700 -52.209700 35.502200 0.000000 0.000100 49.704800 -3.545200 6.031500 0.523200 0.000000 0.000000 0.000000 0.000000 0.000000 0.000000 3.503700 8.870700 -15.037900 20.927900 47.900300 -22.101400 0.000000 0.000000 -31.306000 -19.967800 -11.809500 4.289700 0.000000 0.000000 0.000000 0.000000 0.000000 0.000000 -21.269700 2.528400 -9.161400 24.891100 0.000000 0.000000 -8.589900 -9.955900 -8.655400 -4.054400 0.000000 0.000000 -21.676900 -8.237900 8.840200 18.492100 0.000000 0.000000 -12.339800 24.570600 21.467300 11.107200 0.000000 0.000000 
0.324780 1.343078 0.955568 5.980000 3.008900 -13.624900 5.255500 4.720100 -0.994900 2.975100 1.489600 0.128400 4.799600 0.189600 -0.374400 0.673200 -0.378200 0.246000 -9.006700 -9.235000 -2.780000 -5.074300 -3.017100 4.828800 2.941600 -5.563900 12.689100 31.495900 -52.317900 35.860100 0.000000 0.000100 50.650800 -2.981400 5.612400 0.800400 0.000000 0.000000 0.000000 0.000000 0.000000 0.000000 3.627300 9.078000 -14.898200 21.839000 48.095200 -22.733100 0.000000 0.000000 -28.945500 -20.066500 -11.687800 5.013100 0.000000 0.000000 0.000000 0.000000 0.000000 0.000000 -20.170700 2.004300 -7.114300 28.644800 0.000000 0.000000 -10.695400 -8.448700 -10.638000 -4.419300 0.000000 0.000000 -22.249000 -8.772900 8.682500 18.934500 0.000000 0.000000 -12.167800 25.180900 21.415200 11.106000 0.000000 0.000000 
0.321981 1.351775 0.953549 5.810800 3.126200 -13.303000 4.925900 4.578500 -0.872400 2.790200 1.582000 0.122600 4.784900 0.162500 -0.542700 0.710800 -0.316200 0.160200 -8.381400 -9.042400 -2.752400 -5.105100 -3.304000 4.537700 3.147600 -5.544600 12.268600 32.197600 -52.875000 35.864800 0.000000 0.000100 51.097800 -2.038400 4.952000 0.704700 0.000000 0.000000 0.000000 0.000000 0.000000 0.000000 3.806200 9.316600 -14.878900 23.485800 48.167700 -23.830100 0.000000 0.000000 -26.741500 -20.510300 -11.310700 5.417200 0.000000 0.000000 0.000000 0.000000 0.000000 0.000000 -18.511700 1.482900 -5.642800 31.189100 0.000000 0.000000 -12.742900 -7.660400 -10.630000 -5.199400 0.000000 0.000000 -22.980200 -9.126700 8.487300 19.530100 0.000000 0.000000 -11.646200 25.614400 21.109600 10.732500 0.000000 0.000000 
0.318374 1.360221 0.950912 5.572400 3.089200 -12.696600 4.553200 4.420000 -0.706500 2.586700 1.662200 0.121400 4.684700 0.160800 -0.608100 0.738600 -0.259900 0.116100 -7.899900 -8.638300 -2.816500 -5.171300 -3.506300 4.081600 3.467800 -5.468100 11.781200 32.529500 -53.905600 35.420800 0.000000 0.000100 51.199000 -1.177600 4.284800 0.229800 0.000000 0.000000 0.000000 0.000000 0.000000 0.000000 4.004400 9.508000 -14.961000 25.568000 48.183900 -25.224700 0.000000 0.000000 -24.908800 -20.703700 -10.475200 5.809800 0.000000 0.000000 0.000000 0.000000 0.000000 0.000000 -16.362000 0.938600 -4.355300 32.415500 0.000000 0.000000 -14.665700 -6.690900 -10.818200 -5.572000 0.000000 0.000000 -23.722900 -9.304900 8.328200 20.140100 0.000000 0.000000 -11.039200 25.949200 20.616100 10.675600 0.000000 0.000000 
0.314201 1.368892 0.947793 5.227400 2.956800 -12.023400 4.213500 4.182600 -0.506700 2.410700 1.710100 0.134300 4.558400 0.236200 -0.539100 0.749900 -0.205700 0.084800 -7.677900 -8.035200 -2.817700 -5.210700 -3.546000 3.602100 3.795500 -5.372700 11.389500 32.685100 -55.099000 34.732200 0.000000 0.000100 50.999400 -0.821800 3.850300 -0.338100 0.000000 0.000000 0.000000 0.000000 0.000000 0.000000 4.186100 9.641400 -14.852500 27.800800 48.128600 -26.833400 0.000000 0.000000 -23.569200 -20.174600 -9.252400 6.322100 0.000000 0.000000 0.000000 0.000000 0.000000 0.000000 -13.853400 0.477600 -3.417800 32.439600 0.000000 0.000000 -15.929200 -5.368100 -11.681300 -6.504900 0.000000 0.000000 -24.389300 -9.406800 8.251600 20.709300 0.000000 0.000000 -10.469600 26.514300 20.199600 10.914100 0.000000 0.000000 
